<mxfile host="app.diagrams.net" modified="2024-06-23T23:14:52.311Z" agent="Mozilla/5.0 (Windows NT 10.0; Win64; x64) AppleWebKit/537.36 (KHTML, like Gecko) Chrome/126.0.0.0 Safari/537.36" etag="kNRvzalMcrORnJywNMk6" version="24.4.3" type="github">
  <diagram name="PÃ¡gina-1" id="hQOfid8Nx8m6rW-_bK_2">
    <mxGraphModel dx="880" dy="500" grid="1" gridSize="10" guides="1" tooltips="1" connect="1" arrows="1" fold="1" page="1" pageScale="1" pageWidth="827" pageHeight="1169" math="0" shadow="0">
      <root>
        <mxCell id="0" />
        <mxCell id="1" parent="0" />
        <mxCell id="GYiJIr7otqwx2IcnUzzo-2" value="" style="image;html=1;image=img/lib/clip_art/computers/Server_128x128.png;fontStyle=1;fontSize=18;fontFamily=Times New Roman;" vertex="1" parent="1">
          <mxGeometry x="540" y="200" width="110" height="100" as="geometry" />
        </mxCell>
        <mxCell id="GYiJIr7otqwx2IcnUzzo-3" value="" style="image;aspect=fixed;perimeter=ellipsePerimeter;html=1;align=center;shadow=0;dashed=0;spacingTop=3;image=img/lib/active_directory/internet_cloud.svg;fontStyle=1;fontSize=18;fontFamily=Times New Roman;" vertex="1" parent="1">
          <mxGeometry x="310" y="100" width="113.49" height="71.5" as="geometry" />
        </mxCell>
        <mxCell id="GYiJIr7otqwx2IcnUzzo-4" value="" style="image;aspect=fixed;perimeter=ellipsePerimeter;html=1;align=center;shadow=0;dashed=0;spacingTop=3;image=img/lib/active_directory/laptop_client.svg;fontStyle=1;fontSize=18;fontFamily=Times New Roman;" vertex="1" parent="1">
          <mxGeometry x="80" y="200" width="90" height="100" as="geometry" />
        </mxCell>
        <mxCell id="GYiJIr7otqwx2IcnUzzo-5" value="" style="shape=image;html=1;verticalAlign=top;verticalLabelPosition=bottom;labelBackgroundColor=#ffffff;imageAspect=0;aspect=fixed;image=https://cdn3.iconfinder.com/data/icons/edge/128/File_Explorer.png" vertex="1" parent="1">
          <mxGeometry x="312.74" y="290" width="108" height="108" as="geometry" />
        </mxCell>
        <mxCell id="GYiJIr7otqwx2IcnUzzo-6" value="" style="curved=1;endArrow=classic;html=1;rounded=0;fontStyle=1;fontSize=18;fontFamily=Times New Roman;" edge="1" parent="1">
          <mxGeometry width="50" height="50" relative="1" as="geometry">
            <mxPoint x="130" y="200" as="sourcePoint" />
            <mxPoint x="290" y="150" as="targetPoint" />
            <Array as="points">
              <mxPoint x="130" y="150" />
            </Array>
          </mxGeometry>
        </mxCell>
        <mxCell id="GYiJIr7otqwx2IcnUzzo-8" value="" style="curved=1;endArrow=classic;html=1;rounded=0;entryX=0.5;entryY=0;entryDx=0;entryDy=0;fontStyle=1;fontSize=18;fontFamily=Times New Roman;" edge="1" parent="1" target="GYiJIr7otqwx2IcnUzzo-2">
          <mxGeometry width="50" height="50" relative="1" as="geometry">
            <mxPoint x="420" y="150" as="sourcePoint" />
            <mxPoint x="470" y="100" as="targetPoint" />
            <Array as="points">
              <mxPoint x="470" y="150" />
              <mxPoint x="590" y="160" />
            </Array>
          </mxGeometry>
        </mxCell>
        <mxCell id="GYiJIr7otqwx2IcnUzzo-9" value="" style="curved=1;endArrow=classic;html=1;rounded=0;exitX=0.5;exitY=1;exitDx=0;exitDy=0;entryX=1;entryY=0.5;entryDx=0;entryDy=0;fontStyle=1;fontSize=18;fontFamily=Times New Roman;" edge="1" parent="1" source="GYiJIr7otqwx2IcnUzzo-2" target="GYiJIr7otqwx2IcnUzzo-5">
          <mxGeometry width="50" height="50" relative="1" as="geometry">
            <mxPoint x="520" y="390" as="sourcePoint" />
            <mxPoint x="570" y="340" as="targetPoint" />
            <Array as="points">
              <mxPoint x="580" y="350" />
            </Array>
          </mxGeometry>
        </mxCell>
        <mxCell id="GYiJIr7otqwx2IcnUzzo-10" value="" style="curved=1;endArrow=classic;html=1;rounded=0;entryX=0.5;entryY=1;entryDx=0;entryDy=0;exitX=0;exitY=0.5;exitDx=0;exitDy=0;fontStyle=1;fontSize=18;fontFamily=Times New Roman;" edge="1" parent="1" source="GYiJIr7otqwx2IcnUzzo-5" target="GYiJIr7otqwx2IcnUzzo-4">
          <mxGeometry width="50" height="50" relative="1" as="geometry">
            <mxPoint x="220" y="390" as="sourcePoint" />
            <mxPoint x="270" y="340" as="targetPoint" />
            <Array as="points">
              <mxPoint x="160" y="350" />
            </Array>
          </mxGeometry>
        </mxCell>
        <mxCell id="GYiJIr7otqwx2IcnUzzo-11" value="Internet" style="text;html=1;align=center;verticalAlign=middle;whiteSpace=wrap;rounded=0;fontStyle=1;fontSize=18;fontFamily=Times New Roman;" vertex="1" parent="1">
          <mxGeometry x="330" y="171.5" width="60" height="30" as="geometry" />
        </mxCell>
        <mxCell id="GYiJIr7otqwx2IcnUzzo-12" value="Cliente" style="text;html=1;align=center;verticalAlign=middle;whiteSpace=wrap;rounded=0;fontStyle=1;fontSize=18;fontFamily=Times New Roman;" vertex="1" parent="1">
          <mxGeometry x="180" y="235" width="60" height="30" as="geometry" />
        </mxCell>
        <mxCell id="GYiJIr7otqwx2IcnUzzo-13" value="Servidor" style="text;html=1;align=center;verticalAlign=middle;whiteSpace=wrap;rounded=0;fontStyle=1;fontSize=18;fontFamily=Times New Roman;" vertex="1" parent="1">
          <mxGeometry x="470" y="230" width="60" height="30" as="geometry" />
        </mxCell>
        <mxCell id="GYiJIr7otqwx2IcnUzzo-14" value="Archivo" style="text;html=1;align=center;verticalAlign=middle;whiteSpace=wrap;rounded=0;fontStyle=1;fontSize=18;fontFamily=Times New Roman;" vertex="1" parent="1">
          <mxGeometry x="330" y="270" width="60" height="30" as="geometry" />
        </mxCell>
      </root>
    </mxGraphModel>
  </diagram>
</mxfile>
